<?xml version="1.0" encoding="utf-8"?>
<!-- Generator: Adobe Illustrator 22.0.1, SVG Export Plug-In . SVG Version: 6.00 Build 0)  -->
<svg version="1.1" id="Layer_1" xmlns="http://www.w3.org/2000/svg" xmlns:xlink="http://www.w3.org/1999/xlink" x="0px" y="0px"
	 viewBox="0 0 2000 2000" style="enable-background:new 0 0 2000 2000;" xml:space="preserve">
<style type="text/css">
	.st0{fill:url(#SVGID_1_);}
	.st1{fill:url(#SVGID_2_);}
	.st2{fill:url(#SVGID_3_);}
	.st3{fill:url(#SVGID_4_);}
	.st4{fill:url(#SVGID_5_);}
	.st5{fill:url(#SVGID_6_);}
	.st6{fill:url(#SVGID_7_);}
	.st7{fill:url(#SVGID_8_);}
	.st8{fill:url(#SVGID_9_);}
	.st9{fill:url(#SVGID_10_);}
	.st10{fill:url(#SVGID_11_);}
</style>
<g>
	<g>
		
			<linearGradient id="SVGID_1_" gradientUnits="userSpaceOnUse" x1="-9.094947e-13" y1="1126" x2="1998" y2="1126" gradientTransform="matrix(0.2994 -0.5185 0.5185 0.2994 116.0758 1306.9139)">
			<stop  offset="0" style="stop-color:#FF279F"/>
			<stop  offset="1" style="stop-color:#00A3CF"/>
		</linearGradient>
		<path class="st0" d="M704.6,612.3l592.1-1.9l294.4,513.7l-297.7,515.6l-592.1,1.9l-294.4-513.7L704.6,612.3 M703.2,609.9
			l-299.1,518L699.9,1644l594.8-1.9l299.1-518L1298.1,608L703.2,609.9L703.2,609.9z"/>
	</g>
	<g>
		
			<linearGradient id="SVGID_2_" gradientUnits="userSpaceOnUse" x1="1.818989e-12" y1="1126" x2="1998" y2="1126" gradientTransform="matrix(0.3705 -0.5099 0.5099 0.3705 54.7915 1218.2444)">
			<stop  offset="0" style="stop-color:#FF279F"/>
			<stop  offset="1" style="stop-color:#00A3CF"/>
		</linearGradient>
		<path class="st1" d="M747.3,555.8l620,63.2l251.7,570.2l-368.4,507l-620-63.2L379,1062.9L747.3,555.8 M746.2,553.2l-370.1,509.4
			l252.8,572.8l622.9,63.5l370.1-509.4l-252.8-572.8L746.2,553.2L746.2,553.2z"/>
	</g>
	<g>
		
			<linearGradient id="SVGID_3_" gradientUnits="userSpaceOnUse" x1="3.637979e-12" y1="1126" x2="1998" y2="1126" gradientTransform="matrix(0.4439 -0.493 0.493 0.4439 0.3913 1118.6763)">
			<stop  offset="0" style="stop-color:#FF279F"/>
			<stop  offset="1" style="stop-color:#00A3CF"/>
		</linearGradient>
		<path class="st2" d="M798.3,501.4l642.1,134.3l200.7,624.6l-441.4,490.3l-642.1-134.3L356.9,991.7L798.3,501.4 M797.3,498.5
			L353.9,991l201.7,627.5l645.1,135l443.5-492.5l-201.7-627.5L797.3,498.5L797.3,498.5z"/>
	</g>
	<g>
		
			<linearGradient id="SVGID_4_" gradientUnits="userSpaceOnUse" x1="9.094947e-13" y1="1126" x2="1998" y2="1126" gradientTransform="matrix(0.519 -0.4673 0.4673 0.519 -45.6028 1008.4562)">
			<stop  offset="0" style="stop-color:#FF279F"/>
			<stop  offset="1" style="stop-color:#00A3CF"/>
		</linearGradient>
		<path class="st3" d="M857.6,450.1L1515,661.4l141.4,675.9l-516.1,464.7L483,1590.6L341.5,914.7L857.6,450.1 M856.9,446.9
			L338.5,913.7l142.1,679.1l660.5,212.3l518.4-466.8l-142.1-679.1L856.9,446.9L856.9,446.9z"/>
	</g>
	<g>
		
			<linearGradient id="SVGID_5_" gradientUnits="userSpaceOnUse" x1="1.818989e-12" y1="1126" x2="1998" y2="1126" gradientTransform="matrix(0.5947 -0.4321 0.4321 0.5947 -81.6249 888.0098)">
			<stop  offset="0" style="stop-color:#FF279F"/>
			<stop  offset="1" style="stop-color:#00A3CF"/>
		</linearGradient>
		<path class="st4" d="M925.3,402.8l665,293.5l73.7,723.2l-591.4,429.7l-665-293.5L334,832.5L925.3,402.8 M925,399.4L330.9,831.1
			l74,726.6l668.1,294.9l594.1-431.6l-74-726.6L925,399.4L925,399.4z"/>
	</g>
	<g>
		
			<linearGradient id="SVGID_6_" gradientUnits="userSpaceOnUse" x1="2.728484e-12" y1="1126" x2="1998" y2="1126" gradientTransform="matrix(0.6701 -0.3869 0.3869 0.6701 -106.0825 757.9553)">
			<stop  offset="0" style="stop-color:#FF279F"/>
			<stop  offset="1" style="stop-color:#00A3CF"/>
		</linearGradient>
		<path class="st5" d="M1001.5,360.8l663.9,380.5l-2.4,765.2l-666.4,384.7l-663.9-380.5l2.4-765.2L1001.5,360.8 M1001.5,357.3
			L332,743.8l-2.5,768.7l667,382.2l669.4-386.5l2.5-768.7L1001.5,357.3L1001.5,357.3z"/>
	</g>
	<g>
		
			<linearGradient id="SVGID_7_" gradientUnits="userSpaceOnUse" x1="0" y1="1126" x2="1998" y2="1126" gradientTransform="matrix(0.7441 -0.3313 0.3313 0.7441 -117.3764 619.1146)">
			<stop  offset="0" style="stop-color:#FF279F"/>
			<stop  offset="1" style="stop-color:#00A3CF"/>
		</linearGradient>
		<path class="st6" d="M1085.8,325.2l653.1,471.3l-86.8,800.8l-739.9,329.4l-653.1-471.3l86.8-800.8L1085.8,325.2 M1086.2,321.5
			l-743.3,331L255.7,1457l656.2,473.5l743.3-331l87.2-804.5L1086.2,321.5L1086.2,321.5z"/>
	</g>
	<g>
		
			<linearGradient id="SVGID_8_" gradientUnits="userSpaceOnUse" x1="0" y1="1126" x2="1998" y2="1126" gradientTransform="matrix(0.8154 -0.2649 0.2649 0.8154 -113.923 472.5245)">
			<stop  offset="0" style="stop-color:#FF279F"/>
			<stop  offset="1" style="stop-color:#00A3CF"/>
		</linearGradient>
		<path class="st7" d="M1177.9,297.3l631.9,565.3l-178.9,828.7l-810.8,263.5l-631.9-565.3l178.9-828.7L1177.9,297.3 M1178.8,293.4
			L364.2,558.1l-179.8,832.6l634.8,567.9l814.6-264.7l179.8-832.6L1178.8,293.4L1178.8,293.4z"/>
	</g>
	<g>
		
			<linearGradient id="SVGID_9_" gradientUnits="userSpaceOnUse" x1="9.094947e-13" y1="1126" x2="1998" y2="1126" gradientTransform="matrix(0.8828 -0.1876 0.1876 0.8828 -94.1784 319.4444)">
			<stop  offset="0" style="stop-color:#FF279F"/>
			<stop  offset="1" style="stop-color:#00A3CF"/>
		</linearGradient>
		<path class="st8" d="M1277.5,278.1l599.3,661.3l-278.5,847.9l-877.8,186.6l-599.3-661.3l278.5-847.9L1277.5,278.1 M1278.8,274.1
			L396.9,461.6l-279.8,851.9l602.1,664.4l881.9-187.5l279.8-851.9L1278.8,274.1L1278.8,274.1z"/>
	</g>
	<g>
		
			<linearGradient id="SVGID_10_" gradientUnits="userSpaceOnUse" x1="0" y1="1126" x2="1998" y2="1126" gradientTransform="matrix(0.9448 -9.930204e-02 9.930204e-02 0.9448 -56.6651 161.3627)">
			<stop  offset="0" style="stop-color:#FF279F"/>
			<stop  offset="1" style="stop-color:#00A3CF"/>
		</linearGradient>
		<path class="st9" d="M1383.9,269l554.6,758.2l-384.8,857L614.1,1983L59.5,1224.7l384.8-857L1383.9,269 M1385.6,265l-943.9,99.2
			l-386.6,861L612.4,1987l943.9-99.2l386.6-861L1385.6,265L1385.6,265z"/>
	</g>
	<g>
		<linearGradient id="SVGID_11_" gradientUnits="userSpaceOnUse" x1="0" y1="1126" x2="1998" y2="1126">
			<stop  offset="0" style="stop-color:#FF279F"/>
			<stop  offset="1" style="stop-color:#00A3CF"/>
		</linearGradient>
		<path class="st10" d="M1496.2,271.2l497.2,854.8l-497.2,854.8H501.8L4.6,1126l497.2-854.8H1496.2 M1498.5,267.2h-999L0,1126
			l499.5,858.8h999L1998,1126L1498.5,267.2L1498.5,267.2z"/>
	</g>
</g>
</svg>
